<mxfile host="65bd71144e">
    <diagram id="ncp3lcxw3w1cd1IU2U_P" name="Page-1">
        <mxGraphModel dx="674" dy="378" grid="1" gridSize="10" guides="1" tooltips="1" connect="1" arrows="1" fold="1" page="1" pageScale="1" pageWidth="850" pageHeight="1100" math="0" shadow="0">
            <root>
                <mxCell id="0"/>
                <mxCell id="1" parent="0"/>
                <mxCell id="3" value="" style="whiteSpace=wrap;html=1;" parent="1" vertex="1">
                    <mxGeometry x="170" y="100" width="360" height="320" as="geometry"/>
                </mxCell>
                <mxCell id="2" value="World&lt;br&gt;" style="text;html=1;align=center;verticalAlign=middle;resizable=0;points=[];autosize=1;strokeColor=none;fillColor=none;" parent="1" vertex="1">
                    <mxGeometry x="180" y="110" width="50" height="20" as="geometry"/>
                </mxCell>
                <mxCell id="9" style="edgeStyle=none;html=1;entryX=-0.027;entryY=0.658;entryDx=0;entryDy=0;entryPerimeter=0;startArrow=classic;startFill=1;endArrow=none;endFill=0;" parent="1" source="4" target="6" edge="1">
                    <mxGeometry relative="1" as="geometry"/>
                </mxCell>
                <mxCell id="4" value="" style="whiteSpace=wrap;html=1;fillColor=none;" parent="1" vertex="1">
                    <mxGeometry x="180" y="240" width="160" height="120" as="geometry"/>
                </mxCell>
                <mxCell id="5" value="Camera (180, 600)" style="text;html=1;align=center;verticalAlign=middle;resizable=0;points=[];autosize=1;strokeColor=none;fillColor=none;" parent="1" vertex="1">
                    <mxGeometry x="200" y="210" width="120" height="20" as="geometry"/>
                </mxCell>
                <mxCell id="6" value="Draw()" style="text;html=1;align=center;verticalAlign=middle;resizable=0;points=[];autosize=1;strokeColor=none;fillColor=none;" parent="1" vertex="1">
                    <mxGeometry x="610" y="260" width="50" height="20" as="geometry"/>
                </mxCell>
                <mxCell id="13" value="" style="whiteSpace=wrap;html=1;dashed=1;" parent="1" vertex="1">
                    <mxGeometry x="590" y="70" width="130" height="130" as="geometry"/>
                </mxCell>
                <mxCell id="14" value="struct Camera {&lt;br&gt;size,&lt;br&gt;position&lt;br&gt;}" style="text;html=1;align=center;verticalAlign=middle;resizable=0;points=[];autosize=1;strokeColor=none;fillColor=none;" parent="1" vertex="1">
                    <mxGeometry x="605" y="105" width="100" height="60" as="geometry"/>
                </mxCell>
                <mxCell id="15" value="" style="shape=waypoint;sketch=0;size=6;pointerEvents=1;points=[];fillColor=#d5e8d4;resizable=0;rotatable=0;perimeter=centerPerimeter;snapToPoint=1;strokeColor=#82b366;" parent="1" vertex="1">
                    <mxGeometry x="240" y="280" width="40" height="40" as="geometry"/>
                </mxCell>
                <mxCell id="16" value="pos en world:&amp;nbsp; 200, 600" style="text;html=1;align=center;verticalAlign=middle;resizable=0;points=[];autosize=1;strokeColor=none;fillColor=none;" parent="1" vertex="1">
                    <mxGeometry x="560" y="340" width="140" height="20" as="geometry"/>
                </mxCell>
                <mxCell id="17" value="pos en screen (sx, sy): 170, 150" style="text;html=1;align=center;verticalAlign=middle;resizable=0;points=[];autosize=1;strokeColor=none;fillColor=none;" parent="1" vertex="1">
                    <mxGeometry x="560" y="520" width="190" height="20" as="geometry"/>
                </mxCell>
                <mxCell id="18" value="ObjX - (cx - cw / 2) = sx" style="text;html=1;align=center;verticalAlign=middle;resizable=0;points=[];autosize=1;strokeColor=none;fillColor=none;" parent="1" vertex="1">
                    <mxGeometry x="565" y="380" width="140" height="20" as="geometry"/>
                </mxCell>
                <mxCell id="19" value="200 - (&lt;b&gt;180 - 150)&lt;/b&gt;&amp;nbsp;=&amp;nbsp; 170" style="text;html=1;align=center;verticalAlign=middle;resizable=0;points=[];autosize=1;strokeColor=none;fillColor=none;" parent="1" vertex="1">
                    <mxGeometry x="565" y="420" width="140" height="20" as="geometry"/>
                </mxCell>
                <mxCell id="20" value="ObjY - (cy - ch / 2) = sy&amp;nbsp;" style="text;html=1;align=center;verticalAlign=middle;resizable=0;points=[];autosize=1;strokeColor=none;fillColor=none;" parent="1" vertex="1">
                    <mxGeometry x="565" y="450" width="140" height="20" as="geometry"/>
                </mxCell>
                <mxCell id="21" value="600 - (&lt;b&gt;600&amp;nbsp; - 150 )&amp;nbsp;&lt;/b&gt; = 150" style="text;html=1;align=center;verticalAlign=middle;resizable=0;points=[];autosize=1;strokeColor=none;fillColor=none;" parent="1" vertex="1">
                    <mxGeometry x="565" y="490" width="150" height="20" as="geometry"/>
                </mxCell>
                <mxCell id="23" value="" style="shape=waypoint;sketch=0;size=6;pointerEvents=1;points=[];fillColor=#d80073;resizable=0;rotatable=0;perimeter=centerPerimeter;snapToPoint=1;strokeColor=#A50040;fontColor=#ffffff;" parent="1" vertex="1">
                    <mxGeometry x="230" y="280" width="40" height="40" as="geometry"/>
                </mxCell>
                <mxCell id="24" value="300" style="text;html=1;align=center;verticalAlign=middle;resizable=0;points=[];autosize=1;strokeColor=none;fillColor=none;" parent="1" vertex="1">
                    <mxGeometry x="230" y="370" width="40" height="20" as="geometry"/>
                </mxCell>
                <mxCell id="25" value="300" style="text;html=1;align=center;verticalAlign=middle;resizable=0;points=[];autosize=1;strokeColor=none;fillColor=none;rotation=-90;" parent="1" vertex="1">
                    <mxGeometry x="340" y="320" width="40" height="20" as="geometry"/>
                </mxCell>
                <mxCell id="27" value="" style="shape=waypoint;sketch=0;size=6;pointerEvents=1;points=[];fillColor=#d5e8d4;resizable=0;rotatable=0;perimeter=centerPerimeter;snapToPoint=1;strokeColor=#82b366;" parent="1" vertex="1">
                    <mxGeometry x="540" y="330" width="40" height="40" as="geometry"/>
                </mxCell>
                <mxCell id="28" value="" style="shape=waypoint;sketch=0;size=6;pointerEvents=1;points=[];fillColor=#d5e8d4;resizable=0;rotatable=0;perimeter=centerPerimeter;snapToPoint=1;strokeColor=#82b366;" parent="1" vertex="1">
                    <mxGeometry x="540" y="510" width="40" height="40" as="geometry"/>
                </mxCell>
                <mxCell id="29" value="1_000" style="text;html=1;align=center;verticalAlign=middle;resizable=0;points=[];autosize=1;strokeColor=none;fillColor=none;" parent="1" vertex="1">
                    <mxGeometry x="470" y="430" width="50" height="20" as="geometry"/>
                </mxCell>
                <mxCell id="30" value="1_000" style="text;html=1;align=center;verticalAlign=middle;resizable=0;points=[];autosize=1;strokeColor=none;fillColor=none;rotation=-90;" parent="1" vertex="1">
                    <mxGeometry x="530" y="220" width="50" height="20" as="geometry"/>
                </mxCell>
            </root>
        </mxGraphModel>
    </diagram>
</mxfile>